# xmcd
#
# Track frame offsets:
#	150
#	16649
#	29037
#	49485
#	68354
#
# Disc length: 1124 seconds
#
# Revision: 0
# Processed by: cddbd v1.5.2PL0 Copyright (c) Steve Scherf et al.
# Submitted via: dBpowerAMP V4.0
#
DISCID=38046205
DTITLE=Melanie Dyer - Melanie Dyer Live
DYEAR=1900
DGENRE=Country
TTITLE0=Life On The Land
TTITLE1=Mockingbird Hill
TTITLE2=Raggedy Ann
TTITLE3=Why Do I Cry?
TTITLE4=Turn Out The Light
EXTD=
EXTT0=
EXTT1=
EXTT2=
EXTT3=
EXTT4=
PLAYORDER=
